<svg xmlns="http://www.w3.org/2000/svg" viewBox="0 0 320 220" width="100%" height="100%">
  <defs>
    <linearGradient id="glassGrad-med-liv52ds" x1="0%" y1="0%" x2="100%" y2="0%">
      <stop offset="0%" stop-color="#ffffff" stop-opacity="0.4" />
      <stop offset="20%" stop-color="#14532d" stop-opacity="0.9" />
      <stop offset="70%" stop-color="#14532d" stop-opacity="1" />
      <stop offset="100%" stop-color="#ffffff" stop-opacity="0.3" />
    </linearGradient>
    <filter id="shadow-med-liv52ds">
      <feDropShadow dx="0" dy="8" stdDeviation="6" flood-color="#0f172a" flood-opacity="0.15" />
    </filter>
  </defs>

  <rect width="320" height="220" rx="20" fill="#f8fafc" />
  <circle cx="160" cy="110" r="85" fill="#dcfce7" opacity="0.15" />

  <g filter="url(#shadow-med-liv52ds)">
    <!-- Measuring Cap on Top -->
    <path d="M 144 20 L 176 20 L 178 38 L 142 38 Z" fill="#ffffff" stroke="#cbd5e1" stroke-width="1.5" />
    <line x1="148" y1="26" x2="158" y2="26" stroke="#94a3b8" stroke-width="1" />
    <line x1="148" y1="32" x2="162" y2="32" stroke="#94a3b8" stroke-width="1" />

    <!-- Bottle Neck -->
    <rect x="146" y="38" width="28" height="18" rx="2" fill="#f1f5f9" stroke="#cbd5e1" stroke-width="1.5" />
    <rect x="142" y="46" width="36" height="5" rx="2" fill="#e2e8f0" />

    <!-- Bottle Body -->
    <path d="M 146 56 C 130 62 110 75 110 95 L 110 185 C 110 195 118 200 128 200 L 192 200 C 202 200 210 195 210 185 L 210 95 C 210 75 190 62 174 56 Z" fill="url(#glassGrad-med-liv52ds)" stroke="#475569" stroke-width="1.5" />
    <path d="M 115 100 L 115 180" stroke="#ffffff" stroke-width="3" stroke-linecap="round" opacity="0.6" />

    <!-- Label Paper -->
    <rect x="116" y="92" width="88" height="82" rx="6" fill="#ffffff" stroke="#e2e8f0" stroke-width="1" />
    <rect x="116" y="92" width="88" height="24" rx="5" fill="#15803d" />
    <text x="160" y="108" fill="#ffffff" font-family="'Poppins',sans-serif" font-weight="900" font-size="9" text-anchor="middle">LIV.52 DS</text>

    <!-- Cross/Liquid Icon -->
    <circle cx="160" cy="130" r="10" fill="#dcfce7" opacity="0.3" />
    <path d="M 160 123 L 160 137 M 153 130 L 167 130" stroke="#15803d" stroke-width="2.5" stroke-linecap="round" />

    <text x="160" y="154" fill="#0f172a" font-family="sans-serif" font-weight="800" font-size="9" text-anchor="middle">60 Tablets</text>
    <text x="160" y="166" fill="#64748b" font-family="sans-serif" font-weight="600" font-size="7" text-anchor="middle">Himalaya Liver Car</text>
  </g>
</svg>